<?xml version="1.0" encoding="UTF-8"?>
<svg id="Layer_1" data-name="Layer 1" xmlns="http://www.w3.org/2000/svg" viewBox="0 0 1366 768">
  <defs>
    <style>
      .cls-1 {
        fill: #fff;
      }

      .cls-2 {
        fill: #e14313;
      }
    </style>
  </defs>
  <path class="cls-1" d="M268,317.98v131.98h-40v-131.98h40Z"/>
  <path class="cls-1" d="M350.46,317.98l75.91,95.42v-95.42h40v131.98h-62.13l-75.74-94.11v94.11h-40v-131.98h61.97Z"/>
  <path class="cls-1" d="M623.59,317.98v32.3h-95.42v23.93h90.99v30.33h-90.99v45.41h-40v-131.98h135.42Z"/>
  <path class="cls-1" d="M676.7,317.98v99.68h90.17v32.3h-130.17v-131.98h40Z"/>
  <path class="cls-1" d="M823.59,317.98v64.76c0,8.36-.98,23.28,5.24,29.67,6.39,6.23,16.89,5.24,22.63,5.24h32.46c3.61,0,14.59,.99,20.5-5.08,5.24-5.57,4.26-16.89,4.26-28.85v-65.74h40v78.2c0,14.92,1.48,29.51-10.33,41.64-12.63,12.79-28.85,12.13-46.07,12.13h-59.02c-14.1,0-25.41,1.15-38.53-12.3-12.46-12.95-11.14-35.41-11.14-45.74v-73.94h40Z"/>
  <polygon class="cls-2" points="1132.93 316.94 1083.1 371.51 1058.57 344.26 1082.94 316.94 1132.93 316.94"/>
  <polygon class="cls-1" points="1073.07 382.05 1013.76 449.96 960.16 449.96 1023.27 383.71 964.58 317.99 1015.39 317.99 1073.07 382.05"/>
  <polygon class="cls-2" points="1138 451.06 1085.37 451.06 1058.24 421.06 1083.09 392.63 1138 451.06"/>
</svg>